<?xml version="1.0" encoding="utf-8"?>
<!-- Generator: Adobe Illustrator 26.0.0, SVG Export Plug-In . SVG Version: 6.00 Build 0)  -->
<svg version="1.1" id="Layer_1" xmlns="http://www.w3.org/2000/svg" xmlns:xlink="http://www.w3.org/1999/xlink" x="0px" y="0px"
	 viewBox="0 0 811 304" style="enable-background:new 0 0 811 304;" xml:space="preserve">
<style type="text/css">
	.st0{fill:#E6E6E6;}
	.st1{fill:#F2F2F2;}
	.st2{fill:#CBCBCB;}
	.st3{fill:#F1F1F1;}
	.st4{fill:#64C2A6;}
	.st5{fill:#2D87BB;}
	.st6{fill:#FFFFFF;}
	.st7{fill:#3F3D56;}
	.st8{fill:#E5E5E5;}
	.st9{fill:#45AE8F;}
</style>
<path id="b659e8b5-7e24-4e9b-ab8e-27842b197401-57" class="st0" d="M23.3,268.3c5.8,2,12.2,0.9,17-3c5.9-5,7.8-13.2,9.3-20.8
	l4.5-22.5l-9.4,6.5c-6.8,4.7-13.7,9.5-18.3,16.2s-6.7,15.9-3,23.2"/>
<path id="bfce889d-851c-4599-b1ba-72c9c39792e6-58" class="st1" d="M24.7,297.2c-1.2-8.6-2.4-17.3-1.6-26c0.7-7.7,3.1-15.3,7.9-21.5
	c2.5-3.3,5.7-6.1,9.2-8.3c0.9-0.6,1.8,0.9,0.8,1.5c-6.1,3.8-10.8,9.5-13.4,16.2c-2.9,7.4-3.4,15.6-2.9,23.5c0.3,4.8,1,9.5,1.6,14.3
	c0.1,0.4-0.1,0.9-0.6,1C25.3,297.9,24.8,297.6,24.7,297.2L24.7,297.2z"/>
<path id="ac886c1d-ef9d-4a77-9e33-50e4cbfa9f0b-59" class="st0" d="M33.2,283.4c2.5,3.8,6.8,6,11.3,5.8c5.7-0.3,10.5-4.3,14.8-8
	L71.9,270l-8.4-0.4c-6-0.3-12.2-0.6-18,1.3s-11,6.3-12.1,12.3"/>
<path id="f8957600-c762-4aa2-be12-aeea5f20d384-60" class="st1" d="M21.4,302.1c5.7-10.1,12.3-21.3,24.1-24.8c3.3-1,6.7-1.3,10.1-1
	c1.1,0.1,0.8,1.8-0.3,1.7c-5.7-0.5-11.4,1-16.2,4.3c-4.5,3.2-8.2,7.3-11.1,12c-1.8,2.8-3.5,5.7-5.1,8.6
	C22.4,303.7,20.8,303.1,21.4,302.1z"/>
<path id="f5e70a17-e793-41c1-a2dd-69237c970f4c-61" class="st0" d="M544,255.2c8,2.8,16.8,1.2,23.4-4.1c8.2-6.9,10.8-18.2,12.8-28.7
	l6.2-31l-12.9,8.9c-9.3,6.4-18.8,13-25.3,22.3s-9.3,21.9-4.1,32"/>
<path id="b90780e1-a28a-4a8c-9c47-a4f5fb7f1aa8-62" class="st1" d="M546,294.9c-1.6-11.9-3.3-23.9-2.2-35.9c1-10.6,4.3-21,10.9-29.6
	c3.5-4.5,7.8-8.4,12.6-11.4c1.3-0.8,2.4,1.2,1.2,2c-8.4,5.3-14.9,13.1-18.5,22.3c-4,10.2-4.7,21.4-4,32.3c0.4,6.6,1.3,13.1,2.2,19.7
	c0.1,0.6-0.2,1.2-0.8,1.4C546.8,295.9,546.2,295.5,546,294.9L546,294.9z"/>
<path id="b244f669-d0df-4dab-b5dc-a763144460fd-63" class="st0" d="M557.7,275.8c3.4,5.2,9.3,8.2,15.5,8c7.9-0.4,14.4-5.9,20.3-11.1
	l17.5-15.4l-11.5-0.6c-8.3-0.4-16.8-0.8-24.7,1.8s-15.2,8.7-16.7,16.9"/>
<path id="e7416fa3-7efb-4d63-8b89-2e15a53e835a-64" class="st1" d="M541.4,301.7c7.8-13.9,16.9-29.3,33.2-34.2
	c4.5-1.4,9.3-1.9,14-1.4c1.5,0.1,1.1,2.4-0.4,2.3c-7.9-0.7-15.7,1.4-22.3,5.9c-6.3,4.3-11.2,10.2-15.3,16.5
	c-2.5,3.9-4.8,7.9-7.1,11.9C542.8,303.9,540.7,303,541.4,301.7z"/>
<path class="st2" d="M470.5,46.5c-1.7-0.7-2.6-2.7-2-4.4c0-0.1,0.1-0.3,0.1-0.4l0,0c0.1-1-0.7-1.9-1.7-2c-0.6,0-1.2,0.2-1.6,0.7l0,0
	c-0.1,0.1-0.2,0.2-0.2,0.4c-0.7,1.7-2.7,2.6-4.4,2c-0.1,0-0.3-0.1-0.4-0.1l0,0c-1-0.1-1.9,0.7-2,1.7c0,0.6,0.2,1.2,0.7,1.6l0,0
	c0.1,0.1,0.2,0.2,0.4,0.2c1.7,0.7,2.6,2.7,2,4.4c0,0.1-0.1,0.3-0.1,0.4l0,0c-0.1,1,0.7,1.9,1.7,2c0.6,0,1.2-0.2,1.6-0.7l0,0
	c0.1-0.1,0.2-0.2,0.2-0.4c0.7-1.7,2.7-2.6,4.4-2c0.1,0,0.3,0.1,0.4,0.1l0,0c1,0.1,1.9-0.7,2-1.7c0-0.6-0.2-1.2-0.7-1.6l0,0
	C470.8,46.6,470.7,46.5,470.5,46.5z"/>
<path class="st3" d="M540.5,209.5c-1.7-0.7-2.6-2.7-2-4.4c0-0.1,0.1-0.3,0.1-0.4l0,0c0.1-1-0.7-1.9-1.7-2c-0.6,0-1.2,0.2-1.6,0.7
	l0,0c-0.1,0.1-0.2,0.2-0.2,0.4c-0.7,1.7-2.7,2.6-4.4,2c-0.1,0-0.3-0.1-0.4-0.1l0,0c-1-0.1-1.9,0.7-2,1.7c0,0.6,0.2,1.2,0.7,1.6l0,0
	c0.1,0.1,0.2,0.2,0.4,0.2c1.7,0.7,2.6,2.7,2,4.4c0,0.1-0.1,0.3-0.1,0.4l0,0c-0.1,1,0.7,1.9,1.7,2c0.6,0,1.2-0.2,1.6-0.7l0,0
	c0.1-0.1,0.2-0.2,0.2-0.4c0.7-1.7,2.7-2.6,4.4-2c0.1,0,0.3,0.1,0.4,0.1l0,0c1,0.1,1.9-0.7,2-1.7c0-0.6-0.2-1.2-0.7-1.6l0,0
	C540.8,209.6,540.7,209.5,540.5,209.5z"/>
<path class="st3" d="M173.5,114.5c-1.7-0.7-2.6-2.7-2-4.4c0-0.1,0.1-0.3,0.1-0.4l0,0c0.1-1-0.7-1.9-1.7-2c-0.6,0-1.2,0.2-1.6,0.7
	l0,0c-0.1,0.1-0.2,0.2-0.2,0.4c-0.7,1.7-2.7,2.6-4.4,2c-0.1,0-0.3-0.1-0.4-0.1l0,0c-1-0.1-1.9,0.7-2,1.7c0,0.6,0.2,1.2,0.7,1.6l0,0
	c0.1,0.1,0.2,0.2,0.4,0.2c1.7,0.7,2.6,2.7,2,4.4c0,0.1-0.1,0.3-0.1,0.4l0,0c-0.1,1,0.7,1.9,1.7,2c0.6,0,1.2-0.2,1.6-0.7l0,0
	c0.1-0.1,0.2-0.2,0.2-0.4c0.7-1.7,2.7-2.6,4.4-2c0.1,0,0.3,0.1,0.4,0.1l0,0c1,0.1,1.9-0.7,2-1.7c0-0.6-0.2-1.2-0.7-1.6l0,0
	C173.8,114.6,173.7,114.5,173.5,114.5z"/>
<circle class="st3" cx="326.7" cy="50" r="6"/>
<circle class="st4" cx="646.7" cy="34" r="6"/>
<circle class="st2" cx="180.7" cy="6" r="6"/>
<circle class="st5" cx="157.6" cy="241.6" r="43.1"/>
<rect x="138" y="275.4" class="st5" width="13.1" height="23.4"/>
<rect x="164.1" y="275.4" class="st5" width="13.1" height="23.4"/>
<ellipse class="st5" cx="148.9" cy="299.1" rx="10.9" ry="4.1"/>
<ellipse class="st5" cx="175" cy="298.6" rx="10.9" ry="4.1"/>
<ellipse transform="matrix(0.7068 -0.7074 0.7074 0.7068 -95.6093 204.309)" class="st5" cx="198.7" cy="217.5" rx="23.9" ry="7.5"/>
<ellipse transform="matrix(0.7074 -0.7068 0.7068 0.7074 -124.8471 139.4326)" class="st5" cx="106" cy="220.5" rx="7.5" ry="23.9"/>
<circle class="st6" cx="155.8" cy="235.5" r="14.7"/>
<circle class="st7" cx="155.8" cy="235.5" r="4.9"/>
<path class="st6" d="M167.5,262.7c0.9,5.2-2.5,10.2-7.7,11.1s-10.2-2.5-11.1-7.7l0,0l0,0l0,0c-0.9-5.2,3.1-7,8.3-8
	S166.5,257.5,167.5,262.7z"/>
<path class="st8" d="M199.8,286.8c-2,0-3.7,1.6-3.7,3.7v7.6c0,2,1.6,3.7,3.7,3.7h58.8c2,0,3.7-1.6,3.7-3.7v-7.6c0-2-1.6-3.7-3.7-3.7
	H199.8z"/>
<path class="st4" d="M233.6,281.7c-0.8-0.4-1.7-0.2-2.2,0.6l-2.2,3.8l-2.1-4.2c-0.4-0.8-1.3-1.1-2.1-0.7c-0.8,0.4-1.1,1.3-0.7,2.1
	c0,0,0,0,0,0l1.7,3.3h-0.6V302h8.2v-15.4h-0.9l1.6-2.7C234.7,283.1,234.4,282.2,233.6,281.7z"/>
<path class="st4" d="M156.5,213.4c-7.7,0-15.3-1.2-22.6-3.4c-1-0.3-1.7-1.3-1.8-2.4V190c0-1.4,1.1-2.5,2.5-2.5h44
	c1.4,0,2.5,1.1,2.5,2.5v17.5c0,1.1-0.7,2.1-1.8,2.4C172,212.2,164.2,213.4,156.5,213.4z"/>
<path class="st9" d="M180.7,190v2.9l-23.8,8.4c-0.4,0.2-0.9,0.1-1.4,0l-22.8-8.6V190c0-1.1,0.9-2,2-2h44
	C179.8,188,180.7,188.9,180.7,190z"/>
<path class="st4" d="M156.2,197.9c-0.3,0-0.6-0.1-0.9-0.2l-34.1-12.8c-1.3-0.5-1.9-1.9-1.5-3.2c0.3-0.7,0.8-1.2,1.5-1.5l32.1-11
	c0.5-0.2,1.1-0.2,1.6,0l35.8,11.9c1.3,0.4,2,1.9,1.6,3.2c-0.2,0.7-0.8,1.3-1.5,1.6L157,197.8C156.7,197.8,156.5,197.9,156.2,197.9z"
	/>
<polygon class="st7" points="125.2,197 124.2,197 124.2,182.5 154.7,182.5 154.7,183.5 125.2,183.5 "/>
<circle class="st7" cx="124.7" cy="198" r="2"/>
<circle class="st5" cx="406.6" cy="241.6" r="43.1"/>
<rect x="387" y="275.4" class="st5" width="13.1" height="23.4"/>
<rect x="413.1" y="275.4" class="st5" width="13.1" height="23.4"/>
<ellipse class="st5" cx="397.9" cy="299.1" rx="10.9" ry="4.1"/>
<ellipse class="st5" cx="424" cy="298.6" rx="10.9" ry="4.1"/>
<ellipse transform="matrix(0.7068 -0.7074 0.7074 0.7068 -22.611 380.4464)" class="st5" cx="447.7" cy="217.5" rx="23.9" ry="7.5"/>
<ellipse transform="matrix(0.5704 -0.8214 0.8214 0.5704 -56.8107 408.394)" class="st5" cx="362" cy="258.5" rx="23.9" ry="7.5"/>
<circle class="st6" cx="404.8" cy="235.5" r="14.7"/>
<circle class="st7" cx="409.8" cy="230.5" r="4.9"/>
<path class="st6" d="M422.4,262.7c1.4,5.2-3.8,10.2-11.7,11.1s-15.5-2.5-17-7.7l0,0l0,0c-1.4-5.2,4.7-7,12.6-8
	S421,257.5,422.4,262.7z"/>
<path class="st4" d="M391.5,216.3c-7.1,2.8-14.6,4.6-22.2,5.2c-1.1,0.1-2.1-0.6-2.5-1.6l-6.5-16.3c-0.5-1.3,0.1-2.7,1.4-3.3
	l40.8-16.4c1.3-0.5,2.7,0.1,3.3,1.4l6.5,16.3c0.4,1,0.1,2.2-0.8,2.9C405.4,209.4,398.7,213.4,391.5,216.3z"/>
<path class="st9" d="M405.2,185.6l1.1,2.7l-19,16.6c-0.4,0.3-0.8,0.5-1.3,0.5l-24.4,0.6l-1-2.5c-0.4-1,0.1-2.2,1.1-2.6l40.8-16.4
	C403.7,184,404.8,184.5,405.2,185.6z"/>
<path class="st4" d="M385.5,202c-0.3,0.1-0.6,0.2-0.9,0.2l-36.4,0.8c-1.4,0-2.5-1.1-2.6-2.4c0-0.7,0.3-1.5,0.9-2l25.7-22.2
	c0.4-0.4,0.9-0.6,1.5-0.6l37.7-2.3c1.4-0.1,2.6,1,2.6,2.3c0,0.8-0.3,1.5-0.8,2l-26.9,23.6C386,201.8,385.7,201.9,385.5,202z"/>
<polygon class="st7" points="356.3,212.8 355.4,213.1 350,199.7 378.3,188.3 378.7,189.2 351.3,200.2 "/>
<circle class="st7" cx="356.3" cy="213.9" r="2"/>
<path class="st4" d="M570.5,139.9c-6.5-4.1-12.3-9.1-17.3-14.9c-0.7-0.8-0.8-2-0.2-3l9.3-14.9c0.7-1.2,2.3-1.5,3.4-0.8l37.4,23.3
	c1.2,0.7,1.5,2.3,0.8,3.4l-9.3,14.9c-0.6,0.9-1.7,1.4-2.8,1.1C584.3,147,577.1,144,570.5,139.9z"/>
<path class="st9" d="M603.4,132.8l-1.5,2.5l-24.6-5.5c-0.5-0.1-0.9-0.4-1.2-0.7l-14.8-19.3l1.4-2.3c0.6-0.9,1.8-1.2,2.8-0.6
	l37.4,23.3C603.7,130.6,604,131.9,603.4,132.8z"/>
<path class="st4" d="M578.5,126.6c-0.3-0.2-0.5-0.4-0.7-0.6l-22.2-28.9c-0.8-1.1-0.6-2.7,0.5-3.5c0.6-0.5,1.4-0.6,2.1-0.5l33,7.6
	c0.5,0.1,1,0.4,1.4,0.8l24.1,29.1c0.9,1.1,0.7,2.6-0.3,3.5c-0.6,0.5-1.4,0.7-2.1,0.5l-34.9-7.8C579,126.8,578.7,126.7,578.5,126.6z"
	/>
<polygon class="st7" points="552.6,109.4 551.8,108.9 559.4,96.6 585.3,112.7 584.8,113.5 559.7,98 "/>
<circle class="st7" cx="551.7" cy="110" r="2"/>
<circle class="st5" cx="674.7" cy="192.6" r="43.1"/>
<rect x="698.6" y="216.6" transform="matrix(0.8533 -0.5215 0.5215 0.8533 -15.6241 401.2072)" class="st5" width="13.1" height="23.4"/>
<rect x="676.2" y="230.3" transform="matrix(0.8533 -0.5215 0.5215 0.8533 -26.0161 391.566)" class="st5" width="13.1" height="23.4"/>
<ellipse transform="matrix(0.8533 -0.5215 0.5215 0.8533 -21.7749 404.3633)" class="st5" cx="707.6" cy="240.9" rx="10.9" ry="4.1"/>
<ellipse transform="matrix(0.8533 -0.5215 0.5215 0.8533 -31.9661 394.5057)" class="st5" cx="685" cy="254.1" rx="10.9" ry="4.1"/>
<ellipse transform="matrix(0.7074 -0.7068 0.7068 0.7074 66.3082 497.1742)" class="st5" cx="633.6" cy="168.5" rx="7.5" ry="23.9"/>
<ellipse transform="matrix(0.8214 -0.5704 0.5704 0.8214 8.982 447.6881)" class="st5" cx="719.3" cy="209.5" rx="7.5" ry="23.9"/>
<circle class="st6" cx="661.5" cy="180.5" r="14.7"/>
<circle class="st7" cx="656.5" cy="175.5" r="4.9"/>
<path class="st6" d="M642.6,205.1c-2.8,4.6,0.9,10.8,8.3,13.8s15.6,1.8,18.4-2.7l0,0l0,0c2.8-4.6-2.6-8-10-11.1
	S645.4,200.5,642.6,205.1z"/>
<path class="st0" d="M660.3,138.5c3.8-15.5,20.8-24.6,37.9-20.4s27.8,20.2,24,35.7s-16.6,15.5-33.7,11.3S656.4,154,660.3,138.5z"/>
</svg>
